<svg width="32" height="32" viewBox="0 0 32 32" fill="none" xmlns="http://www.w3.org/2000/svg">
<path d="M22.7559 21.0671H25.6003V23.2005C25.6003 23.593 25.2817 23.9116 24.8892 23.9116H23.467C23.0744 23.9116 22.7559 23.593 22.7559 23.2005V21.0671Z" stroke="#292D32" stroke-width="1.5"/>
<path d="M7.11133 21.0671H9.95577V23.2005C9.95577 23.593 9.63719 23.9116 9.24466 23.9116H7.82244C7.42991 23.9116 7.11133 23.593 7.11133 23.2005V21.0671Z" stroke="#292D32" stroke-width="1.5"/>
<path d="M9.95577 13.9561H22.7558C24.3266 13.9561 25.6002 15.2297 25.6002 16.8005V20.3561C25.6002 20.7486 25.2816 21.0672 24.8891 21.0672H7.82244C7.42991 21.0672 7.11133 20.7486 7.11133 20.3561V16.8005C7.11133 15.2297 8.38493 13.9561 9.95577 13.9561Z" stroke="#292D32" stroke-width="1.5"/>
<path d="M22.756 16.8005C23.1486 16.8005 23.4671 17.1191 23.4671 17.5116C23.4671 17.9042 23.1486 18.2228 22.756 18.2228C22.3635 18.2228 22.0449 17.9042 22.0449 17.5116C22.0449 17.1191 22.3635 16.8005 22.756 16.8005Z" fill="#292D32"/>
<path d="M9.95525 16.8005C10.3478 16.8005 10.6664 17.1191 10.6664 17.5116C10.6664 17.9042 10.3478 18.2228 9.95525 18.2228C9.56272 18.2228 9.24414 17.9042 9.24414 17.5116C9.24414 17.1191 9.56272 16.8005 9.95525 16.8005Z" fill="#292D32"/>
<path d="M11.1593 8.26709H21.5515C21.848 8.26709 22.1133 8.45127 22.2171 8.7286L24.1776 13.956H8.5332L10.4937 8.7286C10.5976 8.45127 10.8628 8.26709 11.1593 8.26709Z" stroke="#292D32" stroke-width="1.5"/>
<path d="M6.40039 11.8228H8.53372V13.245H6.40039V11.8228Z" fill="#292D32"/>
<path d="M24.1777 11.8228H26.3111V13.245H24.1777V11.8228Z" fill="#292D32"/>
<path d="M12.0898 17.5115H20.6232" stroke="#292D32" stroke-width="1.5"/>
</svg>
