<svg width="33" height="32" viewBox="0 0 33 32" fill="none" xmlns="http://www.w3.org/2000/svg">
<path d="M23.4729 9.02769L22.7318 8.91255C22.695 9.14901 22.7733 9.38881 22.9425 9.55802C23.1118 9.72723 23.3516 9.80554 23.588 9.7688L23.4729 9.02769ZM22.0909 12.8845L22.651 12.3857C22.5137 12.2315 22.319 12.1408 22.1126 12.1348C21.9063 12.1288 21.7066 12.2082 21.5606 12.3542L22.0909 12.8845ZM13.3852 21.5902L12.8549 21.0599C12.7089 21.2059 12.6296 21.4055 12.6355 21.6119C12.6415 21.8182 12.7323 22.013 12.8864 22.1503L13.3852 21.5902ZM9.52843 22.9721L10.2695 23.0873C10.3063 22.8508 10.228 22.611 10.0588 22.4418C9.88954 22.2726 9.64974 22.1943 9.41328 22.231L9.52843 22.9721ZM10.9104 19.1153L10.3503 19.6141C10.4876 19.7683 10.6823 19.8591 10.8887 19.865C11.095 19.871 11.2947 19.7916 11.4407 19.6457L10.9104 19.1153ZM19.6161 10.4096L20.1464 10.94C20.2924 10.794 20.3717 10.5943 20.3658 10.388C20.3598 10.1816 20.269 9.98684 20.1149 9.84955L19.6161 10.4096ZM24.214 9.14284C24.2382 8.98719 24.2507 8.82809 24.2507 8.66659H22.7507C22.7507 8.75071 22.7442 8.83282 22.7318 8.91255L24.214 9.14284ZM23.834 8.24992C23.6725 8.24992 23.5134 8.2624 23.3577 8.28658L23.588 9.7688C23.6678 9.75641 23.7499 9.74992 23.834 9.74992V8.24992ZM26.9173 11.3333C26.9173 9.63037 25.5369 8.24992 23.834 8.24992V9.74992C24.7084 9.74992 25.4173 10.4588 25.4173 11.3333H26.9173ZM23.834 14.4166C25.5369 14.4166 26.9173 13.0361 26.9173 11.3333H25.4173C25.4173 12.2077 24.7084 12.9166 23.834 12.9166V14.4166ZM21.5309 13.3833C22.0945 14.0162 22.918 14.4166 23.834 14.4166V12.9166C23.3637 12.9166 22.9421 12.7125 22.651 12.3857L21.5309 13.3833ZM13.9156 22.1205L22.6213 13.4148L21.5606 12.3542L12.8549 21.0599L13.9156 22.1205ZM14.9173 23.3333C14.9173 22.4172 14.5169 21.5938 13.884 21.0301L12.8864 22.1503C13.2133 22.4414 13.4173 22.863 13.4173 23.3333H14.9173ZM11.834 26.4166C13.5369 26.4166 14.9173 25.0361 14.9173 23.3333H13.4173C13.4173 24.2077 12.7084 24.9166 11.834 24.9166V26.4166ZM8.75065 23.3333C8.75065 25.0361 10.1311 26.4166 11.834 26.4166V24.9166C10.9595 24.9166 10.2507 24.2077 10.2507 23.3333H8.75065ZM8.78732 22.857C8.76314 23.0126 8.75065 23.1717 8.75065 23.3333H10.2507C10.2507 23.2491 10.2571 23.167 10.2695 23.0873L8.78732 22.857ZM9.16732 23.7499C9.32882 23.7499 9.48792 23.7374 9.64357 23.7133L9.41328 22.231C9.33355 22.2434 9.25145 22.2499 9.16732 22.2499V23.7499ZM6.08398 20.6666C6.08398 22.3695 7.46444 23.7499 9.16732 23.7499V22.2499C8.29287 22.2499 7.58398 21.541 7.58398 20.6666H6.08398ZM9.16732 17.5833C7.46444 17.5833 6.08398 18.9637 6.08398 20.6666H7.58398C7.58398 19.7921 8.29287 19.0833 9.16732 19.0833V17.5833ZM11.4704 18.6165C10.9068 17.9836 10.0833 17.5833 9.16732 17.5833V19.0833C9.63757 19.0833 10.0592 19.2873 10.3503 19.6141L11.4704 18.6165ZM19.0857 9.87929L10.38 18.585L11.4407 19.6457L20.1464 10.94L19.0857 9.87929ZM18.084 8.66659C18.084 9.58259 18.4844 10.4061 19.1173 10.9697L20.1149 9.84955C19.788 9.55847 19.584 9.13684 19.584 8.66659H18.084ZM21.1673 5.58325C19.4644 5.58325 18.084 6.96371 18.084 8.66659H19.584C19.584 7.79213 20.2929 7.08325 21.1673 7.08325V5.58325ZM24.2507 8.66659C24.2507 6.96371 22.8702 5.58325 21.1673 5.58325V7.08325C22.0418 7.08325 22.7507 7.79213 22.7507 8.66659H24.2507Z" fill="#292D32"/>
</svg>
